<svg width="452" height="1181" viewBox="0 0 452 1181" fill="none" xmlns="http://www.w3.org/2000/svg">
<g clip-path="url(#clip0_128_3200)">
<g filter="url(#filter0_b_128_3200)">
<path d="M-337.967 476.42C-280.533 262.072 -55.8258 238.06 137.938 186.354L149.073 197.681C183.057 225.155 226.757 201.893 254.169 155.765L311.777 139.893L418.761 247.49L428.648 261.604L389.844 406.423C383.251 419.495 355.919 426.899 314.683 440.08C299.717 422.514 295.26 415.474 283.49 414.966C250.386 413.537 231.389 427.82 195.653 471.243L129.427 489.656L-55.0973 1165.14L-168.589 1131.2L-2.85711 522.558L-13.4516 525.893C-72.753 443.329 -129.54 491.122 -232.629 583.576L-337.967 476.42Z" fill="#0F1422" fill-opacity="0.4"/>
<path d="M137.938 186.354C-55.8258 238.06 -280.533 262.072 -337.967 476.42L-232.629 583.576M137.938 186.354L243.276 293.511M137.938 186.354C172.95 230.13 223.653 207.117 254.169 155.765L311.777 139.893L418.761 247.49M-232.629 583.576C-175.195 369.228 49.5121 345.216 243.276 293.511M-232.629 583.576C-129.54 491.122 -72.753 443.329 -13.4516 525.893L-2.85711 522.558M243.276 293.511C278.288 337.286 328.991 314.273 359.507 262.921L418.761 247.49M418.761 247.49L428.648 261.604L389.844 406.423C383.251 419.495 355.919 426.899 314.683 440.08C299.717 422.514 295.26 415.473 283.49 414.966C250.386 413.537 231.389 427.82 195.653 471.243L129.427 489.656M-2.85711 522.558L-168.589 1131.2L-55.0973 1165.14L129.427 489.656M-2.85711 522.558L129.427 489.656" stroke="url(#paint0_linear_128_3200)" stroke-width="2.08809"/>
<mask id="path-3-inside-1_128_3200" fill="white">
<path fill-rule="evenodd" clip-rule="evenodd" d="M170.581 275.481C172.051 273.306 173.153 270.939 173.834 268.394C179.192 248.399 156.643 224.984 123.469 216.095C94.333 208.288 66.6922 214.283 56.7647 229.404C55.2939 231.578 54.1928 233.945 53.511 236.49C48.1533 256.485 70.7028 279.9 103.877 288.789C133.012 296.596 160.653 290.601 170.581 275.481Z"/>
</mask>
<path d="M177.707 249.484L173.301 265.928L175.318 266.468L179.724 250.024L177.707 249.484ZM57.1325 218.94L52.5025 236.219L54.5194 236.76L59.1495 219.48L57.1325 218.94ZM170.581 275.481L168.851 274.311L168.843 274.323L168.835 274.335L170.581 275.481ZM56.7647 229.404L58.4943 230.573L58.5023 230.562L58.5102 230.55L56.7647 229.404ZM171.817 267.854C171.198 270.165 170.197 272.32 168.851 274.311L172.31 276.651C173.906 274.292 175.107 271.713 175.851 268.935L171.817 267.854ZM122.928 218.112C139.211 222.475 152.788 230.381 161.597 239.528C170.439 248.709 174.233 258.839 171.817 267.854L175.851 268.935C178.793 257.955 173.992 246.379 164.605 236.631C155.185 226.85 140.9 218.604 124.009 214.078L122.928 218.112ZM58.5102 230.55C63.0603 223.619 71.8526 218.546 83.3322 216.197C94.7703 213.857 108.634 214.282 122.928 218.112L124.009 214.078C109.167 210.101 94.6431 209.62 82.495 212.106C70.3884 214.583 60.3966 220.067 55.0192 228.258L58.5102 230.55ZM55.0351 228.234C53.4397 230.592 52.2385 233.171 51.494 235.949L55.5279 237.03C56.1472 234.719 57.1481 232.564 58.4943 230.573L55.0351 228.234ZM51.494 235.949C48.552 246.929 53.3534 258.505 62.7404 268.253C72.16 278.034 86.445 286.28 103.336 290.806L104.417 286.772C88.1345 282.409 74.5578 274.503 65.7485 265.356C56.9068 256.174 53.1122 246.045 55.5279 237.03L51.494 235.949ZM103.336 290.806C118.178 294.783 132.702 295.264 144.85 292.778C156.957 290.301 166.949 284.817 172.326 276.627L168.835 274.335C164.285 281.265 155.493 286.338 144.013 288.687C132.575 291.027 118.711 290.602 104.417 286.772L103.336 290.806Z" fill="url(#paint1_linear_128_3200)" mask="url(#path-3-inside-1_128_3200)"/>
</g>
</g>
<defs>
<filter id="filter0_b_128_3200" x="-351.13" y="126.725" width="792.913" height="1051.72" filterUnits="userSpaceOnUse" color-interpolation-filters="sRGB">
<feFlood flood-opacity="0" result="BackgroundImageFix"/>
<feGaussianBlur in="BackgroundImageFix" stdDeviation="6"/>
<feComposite in2="SourceAlpha" operator="in" result="effect1_backgroundBlur_128_3200"/>
<feBlend mode="normal" in="SourceGraphic" in2="effect1_backgroundBlur_128_3200" result="shape"/>
</filter>
<linearGradient id="paint0_linear_128_3200" x1="487" y1="384.5" x2="51.0001" y2="854" gradientUnits="userSpaceOnUse">
<stop stop-color="#C5693E"/>
<stop offset="0.235723" stop-color="#A54672"/>
<stop offset="1" stop-color="#351689"/>
</linearGradient>
<linearGradient id="paint1_linear_128_3200" x1="221.263" y1="230.7" x2="170.988" y2="407.809" gradientUnits="userSpaceOnUse">
<stop offset="0.00397967" stop-color="#351689"/>
<stop offset="0.301775" stop-color="#A54672"/>
<stop offset="0.971339" stop-color="#C5693E"/>
</linearGradient>
<clipPath id="clip0_128_3200">
<rect width="684.895" height="1038.14" fill="white" transform="translate(-210.311) rotate(15)"/>
</clipPath>
</defs>
</svg>
